<?xml version="1.0" standalone="no"?>
<!DOCTYPE svg PUBLIC "-//W3C//DTD SVG 20010904//EN"
 "http://www.w3.org/TR/2001/REC-SVG-20010904/DTD/svg10.dtd">
<svg version="1.0" xmlns="http://www.w3.org/2000/svg"
 width="1200.000000pt" height="680.000000pt" viewBox="0 0 1200.000000 680.000000"
 preserveAspectRatio="xMidYMid meet">

<g transform="translate(0.000000,680.000000) scale(0.100000,-0.100000)"
fill="#000000" stroke="none">
<path d="M5915 6056 c-43 -19 -84 -64 -108 -116 -25 -56 -35 -236 -18 -305 34
-134 144 -199 273 -161 63 18 98 51 130 121 19 43 23 66 23 170 0 171 -32 246
-119 286 -48 22 -137 24 -181 5z m159 -77 c51 -40 61 -73 61 -204 0 -103 -3
-127 -22 -168 -33 -71 -105 -96 -179 -61 -54 26 -75 83 -76 206 -1 122 13 181
52 220 24 24 36 28 83 28 40 0 61 -6 81 -21z"/>
<path d="M5477 6023 c-110 -177 -187 -322 -187 -351 l0 -32 120 0 120 0 0 -50
c0 -47 -2 -50 -25 -50 -22 0 -25 -4 -25 -35 l0 -35 95 0 95 0 0 35 c0 32 -2
35 -30 35 -29 0 -30 1 -30 50 l0 50 45 0 c45 0 45 0 45 35 0 35 0 35 -45 35
l-45 0 0 51 0 50 -37 -3 c-38 -3 -38 -3 -41 -50 l-3 -48 -70 0 c-38 0 -69 3
-69 7 0 6 124 229 172 311 l20 32 -41 0 c-36 0 -43 -4 -64 -37z"/>
<path d="M6403 5884 c-76 -129 -103 -185 -103 -210 l0 -34 120 0 120 0 0 -49
c0 -47 -2 -50 -27 -53 -24 -3 -28 -8 -30 -35 l-1 -33 99 0 99 0 0 35 c0 32 -2
35 -30 35 -29 0 -30 1 -30 49 l0 50 42 3 c39 3 42 5 42 33 0 28 -3 30 -42 33
l-42 3 0 50 0 50 -37 -3 c-38 -3 -38 -3 -41 -50 l-3 -48 -75 0 -75 0 25 43
c13 23 58 102 99 175 l75 132 -41 0 -42 -1 -102 -175z"/>
<path d="M5835 5101 c-27 -29 -31 -30 -91 -24 -45 4 -64 2 -64 -6 0 -6 8 -11
18 -11 9 0 -3 -11 -28 -23 -63 -32 -86 -83 -95 -211 -6 -89 -5 -98 10 -92 9 3
21 6 26 6 5 0 9 10 9 23 1 31 37 107 66 138 23 24 29 26 59 16 25 -7 44 -6 77
4 37 13 50 13 88 1 29 -8 79 -12 139 -10 l94 4 29 -45 c16 -26 34 -65 40 -88
7 -32 15 -43 29 -43 22 0 22 -9 5 112 -16 115 -45 173 -109 216 -62 43 -110
56 -184 49 -40 -4 -62 -3 -58 3 14 23 -34 7 -60 -19z"/>
<path d="M5730 4815 c-23 -27 4 -40 77 -38 69 2 90 11 80 37 -9 23 -139 23
-157 1z"/>
<path d="M5943 4814 c-10 -28 15 -39 84 -37 69 2 90 11 80 37 -5 13 -23 16
-82 16 -59 0 -77 -3 -82 -16z"/>
<path d="M5748 4663 c-9 -10 -21 -28 -27 -40 -19 -36 -59 -52 -113 -43 -47 7
-48 6 -48 -19 0 -23 -14 -50 -51 -102 -19 -25 -4 -46 50 -74 40 -20 56 -36 75
-73 34 -67 44 -73 114 -70 51 2 66 -2 103 -26 53 -35 78 -36 129 -2 24 16 53
26 76 26 34 0 35 -1 29 -29 -3 -16 -2 -32 3 -35 6 -3 10 -49 11 -102 1 -53 4
-100 7 -105 3 -5 0 -17 -5 -28 -6 -11 -7 -21 -2 -23 5 -2 16 -54 26 -117 9
-63 19 -128 22 -144 4 -21 3 -28 -5 -23 -19 12 -14 -22 7 -41 10 -10 24 -36
31 -58 25 -78 108 -241 154 -302 117 -155 308 -251 558 -283 45 -5 175 -13
290 -16 l208 -7 0 26 0 27 -202 0 c-231 0 -347 12 -468 47 -126 36 -214 86
-295 168 -110 111 -164 216 -216 423 -33 130 -35 152 -14 152 23 0 19 41 -5
47 -14 4 -21 17 -25 47 -9 72 -10 145 -2 145 13 0 36 33 36 51 0 8 -7 24 -15
35 -15 19 -16 18 -11 -22 2 -24 1 -41 -2 -39 -4 3 -8 19 -9 36 -1 18 -7 40
-12 50 -13 24 -13 120 0 120 5 0 24 25 41 55 31 56 52 76 108 107 38 21 39 43
6 106 -14 26 -25 54 -25 64 0 13 -8 16 -39 13 -21 -1 -43 -5 -47 -8 -19 -11
-66 20 -87 58 -20 36 -27 40 -65 43 -36 3 -47 -1 -73 -27 l-31 -31 28 0 28 0
-22 -16 c-24 -16 -29 -39 -11 -50 6 -3 16 -1 22 5 6 6 21 11 34 11 30 0 32
-41 3 -70 -17 -17 -33 -20 -100 -20 -93 0 -120 16 -120 73 0 42 26 67 69 67
l33 0 -30 30 c-36 36 -98 42 -124 13z"/>
<path d="M6032 4092 c1 -36 12 -41 28 -13 7 13 7 22 0 26 -5 3 -10 3 -10 -2 0
-4 -4 -1 -10 7 -6 10 -9 5 -8 -18z"/>
<path d="M6010 4089 c0 -11 4 -18 10 -14 5 3 7 12 3 20 -7 21 -13 19 -13 -6z"/>
<path d="M5890 4077 c0 -7 -7 -22 -16 -33 -14 -18 -15 -18 -4 4 15 30 5 41
-10 12 -18 -33 26 -91 45 -60 4 6 10 8 15 5 5 -3 12 0 16 7 13 21 13 57 1 65
-21 13 -47 13 -47 0z m48 -22 c-3 -3 -9 2 -12 12 -6 14 -5 15 5 6 7 -7 10 -15
7 -18z"/>
<path d="M5753 3960 c3 -16 21 -14 25 2 3 10 2 10 -6 -1 -7 -9 -11 -10 -15 -2
-4 7 -5 8 -4 1z"/>
<path d="M6275 3950 c-24 -26 -8 -65 30 -74 53 -13 80 43 40 83 -23 23 -30 5
-10 -26 15 -23 16 -26 2 -15 -9 8 -19 22 -22 33 -8 24 -17 24 -40 -1z m52 -55
c0 -8 -4 -12 -9 -9 -5 3 -6 10 -3 15 9 13 12 11 12 -6z"/>
<path d="M5480 3938 c0 -4 7 -8 15 -8 8 0 15 4 15 8 0 5 -7 9 -15 9 -8 0 -15
-4 -15 -9z"/>
<path d="M5606 3927 c-8 -31 17 -55 38 -37 9 7 16 9 16 4 0 -5 4 -2 9 5 12 19
-4 51 -25 51 -8 0 -13 -4 -10 -9 3 -5 -2 -15 -12 -22 -15 -13 -16 -12 -4 3 8
9 9 19 4 22 -6 3 -12 -4 -16 -17z"/>
<path d="M5913 3909 c-2 -26 33 -25 40 1 3 13 0 20 -10 20 -9 0 -11 -5 -7 -12
6 -10 5 -10 -7 -1 -12 10 -15 8 -16 -8z"/>
<path d="M5765 3836 c-22 -16 -30 -54 -15 -71 12 -15 60 -17 60 -3 0 6 -9 23
-20 38 -15 21 -17 31 -9 36 7 4 10 3 7 -2 -3 -5 5 -25 19 -44 22 -30 24 -31
19 -10 -4 14 -8 31 -10 39 -4 22 -31 32 -51 17z"/>
<path d="M6012 3820 c-17 -7 -22 -16 -20 -39 4 -56 83 -72 83 -18 1 16 -2 30
-7 33 -4 3 -5 11 -1 19 6 17 -19 19 -55 5z m35 -7 c-4 -3 -3 -11 3 -17 5 -7 5
-17 -2 -26 -8 -12 -9 -12 -4 2 3 10 1 20 -5 23 -9 6 -3 25 8 25 4 0 3 -3 0 -7z"/>
<path d="M5535 3810 c-3 -5 -10 -8 -14 -5 -5 2 -8 -6 -8 -20 0 -14 3 -22 8
-19 5 3 9 1 9 -3 0 -16 39 -9 43 9 6 20 -28 55 -38 38z m30 -19 c3 -5 2 -12
-3 -15 -5 -3 -9 1 -9 9 0 17 3 19 12 6z"/>
<path d="M6290 3800 c-8 -5 -11 -10 -6 -10 6 0 2 -6 -9 -13 -12 -10 -14 -16
-7 -21 7 -4 12 -13 12 -19 0 -7 -4 -6 -10 3 -5 8 -10 11 -10 5 1 -5 7 -19 15
-29 11 -14 15 -16 15 -5 1 10 3 9 11 -3 12 -22 48 -24 55 -3 4 8 11 12 17 8 6
-3 -3 11 -19 32 -25 33 -26 37 -7 27 12 -7 23 -17 25 -24 3 -8 7 -6 11 5 4 11
1 17 -8 17 -8 0 -14 3 -14 8 5 27 -1 34 -18 21 -11 -10 -14 -10 -9 -1 9 15
-22 16 -44 2z m64 -79 c-5 -7 -24 11 -35 32 -11 20 -9 20 13 -3 13 -14 23 -27
22 -29z"/>
<path d="M5660 3715 c0 -8 9 -15 20 -15 13 0 18 5 14 15 -4 8 -12 15 -20 15
-8 0 -14 -7 -14 -15z"/>
<path d="M5856 3718 c-6 -18 -4 -49 2 -43 3 3 10 1 16 -5 7 -5 17 -5 25 -1 16
10 21 44 7 53 -17 12 -46 9 -50 -4z"/>
<path d="M5739 3633 c-9 -2 -22 -16 -28 -30 -10 -21 -9 -29 5 -44 20 -22 37
-24 66 -8 21 11 21 12 2 27 -16 12 -16 14 -1 9 20 -7 21 -3 7 22 -11 21 -28
29 -51 24z"/>
<path d="M5998 3632 c-32 -4 -57 -56 -32 -66 8 -3 14 -14 14 -25 0 -31 39 -41
64 -16 12 12 13 22 6 41 -13 32 -13 44 0 44 5 0 7 -7 4 -15 -4 -8 -1 -15 6
-15 6 0 9 -4 5 -9 -3 -5 -1 -12 5 -16 13 -8 13 4 -1 44 -6 18 -14 30 -17 27
-3 -3 -10 -2 -16 2 -6 4 -23 6 -38 4z"/>
<path d="M5508 3610 c-10 -9 -15 -20 -10 -24 7 -7 8 -11 11 -37 0 -5 6 -7 11
-4 6 3 10 2 10 -4 0 -13 41 -5 51 10 9 16 4 44 -9 42 -5 -1 -9 5 -8 15 1 22
-34 24 -56 2z"/>
<path d="M6303 3575 c-3 -8 -8 -13 -13 -10 -4 2 -6 -8 -5 -23 3 -39 3 -39 25
-45 21 -5 59 17 48 28 -4 4 -3 16 2 26 11 19 4 27 -30 34 -12 2 -23 -2 -27
-10z"/>
<path d="M5620 3452 c0 -37 -41 -178 -69 -238 -59 -127 -149 -190 -321 -227
-88 -19 -128 -20 -542 -20 l-448 0 0 -23 0 -24 199 0 c164 0 201 3 211 15 17
20 64 19 81 -1 12 -15 36 -16 219 -11 302 9 435 43 544 138 56 49 117 168 146
283 26 102 26 126 0 126 -13 0 -20 -7 -20 -18z"/>
<path d="M5100 2445 c0 -8 5 -15 10 -15 6 0 10 -35 10 -85 0 -50 -4 -85 -10
-85 -5 0 -10 -7 -10 -15 0 -10 10 -15 30 -15 30 0 31 1 24 35 -3 19 -2 35 3
35 5 0 24 -16 43 -35 33 -34 60 -45 60 -25 0 6 -15 23 -32 39 -32 29 -33 29
-14 50 11 12 25 21 33 21 7 0 13 7 13 15 0 10 -10 15 -30 15 -22 0 -30 -5 -30
-18 0 -21 -18 -42 -37 -42 -9 0 -13 19 -13 70 0 68 -1 70 -25 70 -16 0 -25 -6
-25 -15z"/>
<path d="M5350 2445 c0 -8 5 -15 10 -15 6 0 10 -35 10 -85 0 -50 -4 -85 -10
-85 -5 0 -10 -7 -10 -15 0 -10 11 -15 35 -15 24 0 35 5 35 15 0 8 -4 15 -10
15 -6 0 -10 40 -10 100 l0 100 -25 0 c-16 0 -25 -6 -25 -15z"/>
<path d="M5540 2445 c0 -8 7 -15 15 -15 12 0 15 -16 15 -85 0 -69 -3 -85 -15
-85 -8 0 -15 -7 -15 -15 0 -11 11 -15 35 -15 36 0 36 0 29 35 -8 45 7 45 43 0
29 -36 63 -47 63 -20 0 8 -7 15 -15 15 -8 0 -22 11 -31 25 -16 24 -16 27 1 45
10 11 24 20 32 20 7 0 13 7 13 15 0 10 -10 15 -30 15 -22 0 -30 -5 -30 -18 0
-21 -18 -42 -37 -42 -9 0 -13 19 -13 70 l0 70 -30 0 c-20 0 -30 -5 -30 -15z"/>
<path d="M6510 2425 c0 -24 5 -35 15 -35 10 0 15 11 15 35 0 24 -5 35 -15 35
-10 0 -15 -11 -15 -35z"/>
<path d="M6950 2445 c0 -8 5 -15 10 -15 6 0 10 -35 10 -85 0 -50 -4 -85 -10
-85 -5 0 -10 -7 -10 -15 0 -10 11 -15 35 -15 24 0 35 5 35 15 0 8 -4 15 -10
15 -6 0 -10 40 -10 100 l0 100 -25 0 c-16 0 -25 -6 -25 -15z"/>
<path d="M4550 2435 c0 -8 7 -15 15 -15 12 0 15 -16 15 -80 0 -64 -3 -80 -15
-80 -8 0 -15 -7 -15 -15 0 -12 16 -15 85 -15 l85 0 0 35 c0 24 -5 35 -15 35
-8 0 -15 -9 -15 -20 0 -17 -7 -20 -45 -20 l-45 0 0 80 c0 47 4 80 10 80 6 0
10 7 10 15 0 10 -11 15 -35 15 -24 0 -35 -5 -35 -15z"/>
<path d="M5470 2430 c0 -13 5 -20 13 -17 6 2 12 10 12 17 0 7 -6 15 -12 18 -8
2 -13 -5 -13 -18z"/>
<path d="M7390 2400 c0 -11 -7 -20 -15 -20 -8 0 -15 -4 -15 -10 0 -5 7 -10 15
-10 10 0 15 -16 17 -62 3 -58 5 -63 27 -66 36 -6 50 15 18 27 -24 9 -27 16
-27 56 0 38 3 45 20 45 11 0 20 5 20 10 0 6 -9 10 -20 10 -13 0 -20 7 -20 20
0 11 -4 20 -10 20 -5 0 -10 -9 -10 -20z"/>
<path d="M4767 2368 c-45 -35 -34 -121 17 -134 59 -15 100 19 98 80 -1 54 -72
86 -115 54z m77 -34 c9 -8 16 -22 16 -29 0 -20 -28 -45 -50 -45 -22 0 -50 25
-50 45 0 20 28 45 50 45 10 0 26 -7 34 -16z"/>
<path d="M4947 2368 c-45 -35 -34 -121 17 -134 59 -15 100 19 98 80 -1 54 -72
86 -115 54z m77 -34 c9 -8 16 -22 16 -29 0 -20 -28 -45 -50 -45 -22 0 -50 25
-50 45 0 20 28 45 50 45 10 0 26 -7 34 -16z"/>
<path d="M5450 2365 c0 -8 5 -15 10 -15 6 0 10 -20 10 -45 0 -25 -4 -45 -10
-45 -5 0 -10 -7 -10 -15 0 -10 11 -15 35 -15 24 0 35 5 35 15 0 8 -4 15 -10
15 -6 0 -10 27 -10 60 0 57 -1 60 -25 60 -16 0 -25 -6 -25 -15z"/>
<path d="M5751 2354 c-12 -15 -21 -37 -21 -49 0 -55 61 -91 111 -65 30 17 23
33 -11 25 -37 -8 -70 2 -70 21 0 10 14 14 56 14 47 0 55 3 50 16 -3 9 -6 19
-6 24 0 18 -33 40 -60 40 -19 0 -36 -9 -49 -26z m79 -19 c11 -13 7 -15 -30
-15 -37 0 -41 2 -30 15 7 8 20 15 30 15 10 0 23 -7 30 -15z"/>
<path d="M5960 2374 c0 -3 14 -35 31 -71 30 -62 34 -113 9 -113 -6 0 -10 -7
-10 -15 0 -10 10 -15 30 -15 29 0 44 24 20 32 -11 3 47 151 61 156 23 9 7 32
-21 32 -29 0 -44 -24 -20 -32 10 -3 -14 -78 -25 -78 -11 0 -35 75 -25 78 24 8
9 32 -20 32 -16 0 -30 -3 -30 -6z"/>
<path d="M6165 2355 c-14 -13 -25 -36 -25 -50 0 -35 42 -75 78 -75 63 0 96 87
50 130 -30 27 -73 26 -103 -5z m83 -17 c28 -28 7 -78 -33 -78 -27 0 -45 18
-45 45 0 27 18 45 45 45 12 0 26 -5 33 -12z"/>
<path d="M6320 2365 c0 -8 4 -15 9 -15 6 0 11 -23 13 -51 4 -63 22 -79 68 -62
16 6 30 7 30 2 0 -5 9 -9 20 -9 11 0 20 7 20 15 0 8 -4 15 -10 15 -6 0 -10 27
-10 60 0 57 -1 60 -25 60 -16 0 -25 -6 -25 -15 0 -8 5 -15 10 -15 6 0 10 -20
10 -45 0 -40 -2 -45 -23 -45 -35 0 -47 19 -47 72 0 41 -3 48 -20 48 -11 0 -20
-7 -20 -15z"/>
<path d="M6570 2364 c0 -8 5 -14 10 -14 6 0 10 -20 10 -45 0 -25 -4 -45 -10
-45 -5 0 -10 -7 -10 -15 0 -10 11 -15 35 -15 24 0 35 5 35 15 0 8 -4 15 -10
15 -5 0 -10 21 -10 46 0 45 0 46 30 39 26 -6 30 -4 30 13 0 18 -7 21 -55 21
-41 0 -55 -4 -55 -15z"/>
<path d="M6730 2358 c-26 -28 -26 -82 0 -108 22 -22 60 -26 91 -9 30 16 14 28
-30 22 -33 -5 -41 -2 -50 16 -11 20 -10 21 44 21 51 0 55 2 55 23 0 53 -72 76
-110 35z m80 -23 c11 -13 7 -15 -29 -15 -39 0 -55 13 -28 23 23 10 45 7 57 -8z"/>
<path d="M7069 2361 c-52 -42 -17 -131 52 -131 40 0 69 32 69 75 0 66 -69 98
-121 56z m85 -27 c9 -8 16 -22 16 -29 0 -18 -28 -45 -46 -45 -45 0 -71 49 -42
78 17 17 54 15 72 -4z"/>
<path d="M7242 2368 c-28 -28 -9 -61 41 -73 34 -9 36 -35 3 -35 -14 0 -28 5
-31 10 -9 15 -35 12 -35 -4 0 -17 51 -39 81 -34 54 8 49 64 -8 83 -16 6 -31
15 -33 20 -5 14 30 19 43 6 14 -14 37 -14 37 0 0 32 -73 52 -98 27z"/>
<path d="M4705 1975 c0 -33 4 -55 11 -55 6 0 9 13 6 31 -4 26 -2 30 14 27 13
-2 19 -12 19 -31 -1 -15 5 -27 11 -27 9 0 10 8 3 32 -5 18 -9 34 -9 35 0 2 -9
3 -20 3 -13 0 -20 7 -20 20 0 11 -3 20 -7 20 -5 0 -8 -25 -8 -55z"/>
<path d="M5805 1975 c0 -30 5 -55 10 -55 6 0 9 23 7 55 -5 71 -17 71 -17 0z"/>
<path d="M6015 1975 c0 -37 4 -55 12 -55 7 0 10 7 7 15 -8 20 5 19 30 -2 20
-17 21 -17 4 2 -16 17 -16 20 -1 37 9 10 11 18 6 18 -6 0 -13 -7 -17 -15 -10
-27 -26 -15 -26 20 0 19 -3 35 -7 35 -5 0 -8 -25 -8 -55z"/>
<path d="M6365 2020 c-11 -17 -11 -100 0 -100 6 0 9 22 8 49 -2 40 1 51 15 54
16 4 16 5 0 6 -9 0 -20 -4 -23 -9z"/>
<path d="M7070 2020 c0 -5 5 -10 10 -10 6 0 10 5 10 10 0 6 -4 10 -10 10 -5 0
-10 -4 -10 -10z"/>
<path d="M7118 1974 c4 -53 5 -55 30 -52 23 2 27 8 27 33 0 23 -5 31 -22 33
-15 2 -23 10 -23 23 0 10 -3 19 -7 19 -5 0 -6 -25 -5 -56z m47 -19 c0 -11 -8
-21 -17 -23 -14 -3 -18 3 -18 23 0 20 4 26 18 23 9 -2 17 -12 17 -23z"/>
<path d="M7205 1975 c0 -30 5 -55 10 -55 6 0 9 23 7 55 -5 71 -17 71 -17 0z"/>
<path d="M4648 1997 c-7 -21 6 -70 20 -73 7 -1 8 0 2 3 -12 6 -13 50 -1 55 5
2 3 8 -4 15 -10 9 -14 9 -17 0z"/>
<path d="M6758 1997 c-7 -21 6 -70 20 -73 7 -1 8 0 2 3 -12 6 -13 50 -1 55 5
2 3 8 -4 15 -10 9 -14 9 -17 0z"/>
<path d="M7330 1978 c0 -25 3 -29 10 -18 13 20 13 50 0 50 -5 0 -10 -15 -10
-32z"/>
<path d="M4796 1972 c-10 -31 3 -52 33 -51 20 1 22 2 6 6 -34 8 -41 23 -11 23
21 0 27 4 24 18 -5 25 -45 28 -52 4z m44 -2 c0 -5 -9 -10 -21 -10 -11 0 -17 5
-14 10 3 6 13 10 21 10 8 0 14 -4 14 -10z"/>
<path d="M4905 1940 c0 -33 4 -50 12 -50 7 0 10 6 7 14 -4 10 2 16 18 18 18 2
23 9 23 33 0 26 -4 30 -30 33 -30 3 -30 2 -30 -48z m50 15 c0 -11 -8 -21 -17
-23 -14 -3 -18 3 -18 23 0 20 4 26 18 23 9 -2 17 -12 17 -23z"/>
<path d="M5008 1983 c27 -5 29 -23 3 -23 -19 0 -35 -23 -24 -34 4 -3 19 -6 33
-6 26 0 27 2 21 33 -5 25 -12 32 -31 34 -23 1 -23 1 -2 -4z m22 -43 c0 -5 -7
-10 -15 -10 -8 0 -15 5 -15 10 0 6 7 10 15 10 8 0 15 -4 15 -10z"/>
<path d="M5070 1975 c-16 -19 -6 -45 20 -52 27 -7 25 -23 -2 -24 -20 -1 -21
-2 -4 -6 26 -7 46 22 46 64 0 28 -4 33 -24 33 -13 0 -29 -7 -36 -15z m50 -15
c0 -24 -26 -38 -42 -22 -16 16 -2 42 22 42 13 0 20 -7 20 -20z"/>
<path d="M5149 1974 c-17 -21 0 -48 32 -51 13 -1 17 0 9 3 -43 16 -44 18 -10
24 31 7 32 8 8 9 -16 0 -28 6 -28 12 0 6 9 9 20 6 11 -3 18 -1 14 4 -8 14 -30
11 -45 -7z"/>
<path d="M5268 1950 c9 -21 19 -34 21 -27 2 7 10 24 18 40 7 15 9 27 4 27 -5
0 -12 -12 -16 -27 -6 -24 -8 -26 -16 -10 -6 9 -7 22 -4 27 3 6 -1 10 -9 10
-12 0 -12 -5 2 -40z"/>
<path d="M5344 1976 c-11 -29 0 -51 26 -51 21 0 25 5 25 30 0 24 -5 31 -23 33
-13 2 -24 -3 -28 -12z m46 -21 c0 -18 -5 -25 -20 -25 -15 0 -20 7 -20 25 0 18
5 25 20 25 15 0 20 -7 20 -25z"/>
<path d="M5428 1955 c4 -30 8 -35 31 -35 25 0 27 3 23 35 -2 19 -7 35 -11 35
-4 0 -6 -13 -3 -30 3 -23 0 -30 -12 -30 -11 0 -16 9 -16 30 0 17 -4 30 -8 30
-4 0 -6 -16 -4 -35z"/>
<path d="M5570 1978 l25 -11 -25 -6 c-36 -10 -32 -35 7 -39 32 -3 32 -3 22 30
-5 18 -9 34 -9 35 0 2 -10 3 -22 2 -22 0 -22 -1 2 -11z m15 -38 c-3 -5 -13
-10 -21 -10 -8 0 -14 5 -14 10 0 6 9 10 21 10 11 0 17 -4 14 -10z"/>
<path d="M5625 1954 c0 -19 5 -34 10 -34 6 0 11 12 10 28 0 16 5 26 13 25 6
-2 12 1 12 6 0 5 -10 9 -22 9 -19 0 -23 -6 -23 -34z"/>
<path d="M5694 1976 c-11 -28 1 -51 26 -53 22 -1 22 -1 3 4 -31 6 -29 23 3 23
20 0 25 4 20 16 -3 9 -6 18 -6 20 0 11 -41 2 -46 -10z m41 -6 c3 -5 -3 -10
-14 -10 -12 0 -21 5 -21 10 0 6 6 10 14 10 8 0 18 -4 21 -10z"/>
<path d="M5850 1976 c-27 -33 18 -72 48 -42 13 13 14 20 6 34 -15 23 -38 26
-54 8z m48 -19 c4 -20 -25 -34 -40 -19 -15 15 -1 44 19 40 10 -2 19 -11 21
-21z"/>
<path d="M5934 1976 c-11 -29 0 -51 26 -51 21 0 25 5 25 30 0 24 -5 31 -23 33
-13 2 -24 -3 -28 -12z m46 -21 c0 -18 -5 -25 -20 -25 -15 0 -20 7 -20 25 0 18
5 25 20 25 15 0 20 -7 20 -25z"/>
<path d="M6105 1955 c0 -19 5 -35 10 -35 7 0 9 15 7 35 -2 19 -7 35 -11 35 -3
0 -6 -16 -6 -35z"/>
<path d="M6145 1954 c0 -19 5 -34 10 -34 6 0 11 12 10 27 0 19 6 29 19 31 16
3 18 -1 14 -27 -3 -20 0 -31 7 -31 9 0 10 10 6 33 -6 27 -11 32 -36 34 -28 1
-30 -2 -30 -33z"/>
<path d="M6239 1974 c-16 -20 -2 -46 32 -55 20 -5 21 -7 7 -14 -9 -4 -22 -4
-28 0 -5 3 -10 1 -10 -4 0 -15 33 -14 48 1 7 7 12 29 12 50 0 33 -3 38 -24 38
-13 0 -29 -7 -37 -16z m49 -16 c-4 -27 -33 -36 -42 -13 -8 22 1 35 25 35 15 0
20 -6 17 -22z"/>
<path d="M6404 1976 c-11 -28 1 -51 25 -51 32 0 49 28 32 49 -17 20 -50 21
-57 2z m54 -19 c4 -20 -25 -34 -40 -19 -15 15 -1 44 19 40 10 -2 19 -11 21
-21z"/>
<path d="M6485 1954 c0 -19 5 -34 10 -34 6 0 11 12 10 28 0 16 5 26 13 25 6
-2 12 1 12 6 0 5 -10 9 -22 9 -19 0 -23 -6 -23 -34z"/>
<path d="M6585 1954 c0 -19 5 -34 10 -34 6 0 11 12 10 28 0 17 5 27 15 27 10
0 15 -10 15 -27 -1 -16 4 -28 11 -28 8 0 9 11 5 33 -6 27 -11 32 -36 34 -28 1
-30 -2 -30 -33z"/>
<path d="M6680 1975 c-18 -22 -1 -50 31 -50 20 0 24 5 24 30 0 23 -5 31 -21
33 -11 2 -27 -4 -34 -13z m48 -18 c4 -20 -25 -34 -40 -19 -15 15 -1 44 19 40
10 -2 19 -11 21 -21z"/>
<path d="M6858 1983 c28 -6 29 -19 1 -26 -28 -7 -19 -31 13 -35 24 -3 25 -1
19 30 -5 26 -12 33 -31 35 -23 1 -23 1 -2 -4z m22 -43 c0 -5 -7 -10 -15 -10
-8 0 -15 5 -15 10 0 6 7 10 15 10 8 0 15 -4 15 -10z"/>
<path d="M6955 1963 c-6 -27 -7 -27 -21 -9 -8 11 -14 15 -14 10 0 -6 6 -18 13
-28 12 -16 14 -14 30 18 9 20 13 36 8 36 -5 0 -12 -12 -16 -27z"/>
<path d="M7013 1983 c23 -6 22 -19 -4 -26 -28 -7 -19 -31 12 -35 23 -3 25 0
21 33 -3 28 -8 35 -26 34 -16 -1 -17 -2 -3 -6z m17 -43 c0 -5 -7 -10 -15 -10
-8 0 -15 5 -15 10 0 6 7 10 15 10 8 0 15 -4 15 -10z"/>
<path d="M7075 1955 c0 -19 5 -35 10 -35 7 0 9 15 7 35 -2 19 -7 35 -11 35 -3
0 -6 -16 -6 -35z"/>
<path d="M7250 1975 c-18 -22 -1 -49 31 -52 19 -1 20 -1 4 4 -34 9 -41 23 -11
23 21 0 27 4 24 17 -4 24 -32 28 -48 8z m40 -5 c0 -5 -9 -10 -21 -10 -11 0
-17 5 -14 10 3 6 13 10 21 10 8 0 14 -4 14 -10z"/>
<path d="M7330 1930 c0 -5 5 -10 10 -10 6 0 10 5 10 10 0 6 -4 10 -10 10 -5 0
-10 -4 -10 -10z"/>
<path d="M5268 1893 c7 -3 16 -2 19 1 4 3 -2 6 -13 5 -11 0 -14 -3 -6 -6z"/>
</g>
</svg>
